<svg width="257" height="59" viewBox="0 0 257 59" fill="none" xmlns="http://www.w3.org/2000/svg">
<path d="M58 36.4328C54.8912 49.3801 43.2697 59 29.4083 59C13.1666 59 0 45.7924 0 29.5C0 13.2076 13.1666 0 29.4083 0C43.2697 0 54.8912 9.61988 58 22.5672C56.0939 20.4165 53.3149 19.0615 50.2204 19.0615C44.4733 19.0615 39.8144 23.735 39.8144 29.5C39.8144 23.735 35.1554 19.0615 29.4083 19.0615C23.6613 19.0615 19.0023 23.735 19.0023 29.5C19.0023 35.265 23.6613 39.9385 29.4083 39.9385C35.1554 39.9385 39.8144 35.265 39.8144 29.5C39.8144 35.265 44.4733 39.9385 50.2204 39.9385C53.3149 39.9385 56.0939 38.5835 58 36.4328Z" fill="#DD3515"/>
<path d="M97.5177 23.3783C96.3342 21.6569 94.5912 20.7962 92.2888 20.7962C89.9863 20.7962 88.2434 21.6569 87.0599 23.3783C85.8764 25.0783 85.2846 27.144 85.2846 29.5756C85.2846 32.0071 85.8764 34.0836 87.0599 35.805C88.2434 37.505 89.9863 38.3549 92.2888 38.3549C94.5912 38.3549 96.3342 37.505 97.5177 35.805C98.7012 34.0836 99.2929 32.0071 99.2929 29.5756C99.2929 27.144 98.7012 25.0783 97.5177 23.3783ZM84.2518 20.9898C86.2745 18.6659 88.9535 17.5039 92.2888 17.5039C95.6241 17.5039 98.2923 18.6659 100.294 20.9898C102.316 23.3138 103.328 26.1757 103.328 29.5756C103.328 32.9969 102.316 35.8696 100.294 38.1936C98.2923 40.496 95.6241 41.6472 92.2888 41.6472C88.9535 41.6472 86.2745 40.496 84.2518 38.1936C82.2506 35.8696 81.25 32.9969 81.25 29.5756C81.25 26.1757 82.2506 23.3138 84.2518 20.9898Z" fill="#252525"/>
<path d="M106.58 47.2634V24.4112H110.066V26.6706H110.13C111.099 24.8631 112.82 23.9593 115.295 23.9593C117.812 23.9593 119.738 24.7985 121.072 26.477C122.428 28.1338 123.106 30.2534 123.106 32.8356C123.106 35.2671 122.482 37.3328 121.234 39.0328C120.007 40.7112 118.232 41.5504 115.908 41.5504C114.746 41.5504 113.659 41.3352 112.648 40.9048C111.637 40.453 110.862 39.7967 110.324 38.9359H110.26V47.2634H106.58ZM119.426 32.771C119.426 31.1571 119.017 29.7692 118.2 28.6072C117.382 27.4453 116.252 26.8643 114.811 26.8643C113.283 26.8643 112.121 27.3915 111.325 28.4459C110.529 29.5002 110.13 30.942 110.13 32.771C110.13 34.4924 110.55 35.9019 111.389 36.9993C112.228 38.0967 113.369 38.6454 114.811 38.6454C116.36 38.6454 117.511 38.0752 118.264 36.9347C119.039 35.7943 119.426 34.4064 119.426 32.771Z" fill="#252525"/>
<path d="M129.088 31.2862H137.673C137.587 30.0597 137.168 29.0161 136.415 28.1554C135.662 27.2946 134.682 26.8643 133.477 26.8643C132.229 26.8643 131.197 27.2839 130.379 28.1231C129.561 28.9623 129.131 30.0167 129.088 31.2862ZM141.353 33.707H129.088C129.088 35.1057 129.464 36.2784 130.217 37.2252C130.992 38.172 132.111 38.6454 133.574 38.6454C135.64 38.6454 136.996 37.7202 137.641 35.8696H141.127C140.74 37.6556 139.847 39.0543 138.448 40.0656C137.071 41.0555 135.446 41.5504 133.574 41.5504C130.992 41.5504 128.98 40.7542 127.538 39.1619C126.118 37.548 125.408 35.4177 125.408 32.771C125.408 30.3179 126.151 28.2414 127.635 26.5415C129.12 24.8201 131.067 23.9593 133.477 23.9593C136.038 23.9593 138.072 24.9384 139.578 26.8966C141.084 28.8547 141.676 31.1249 141.353 33.707Z" fill="#252525"/>
<path d="M144.15 41.0985V24.4112H147.636V26.8643L147.701 26.9288C148.282 26.0036 149.024 25.2827 149.928 24.7663C150.832 24.2283 151.822 23.9593 152.897 23.9593C154.748 23.9593 156.19 24.4435 157.223 25.4118C158.277 26.3801 158.804 27.7896 158.804 29.6401V41.0985H155.125V30.6084C155.082 29.2958 154.802 28.349 154.285 27.768C153.769 27.1655 152.962 26.8643 151.865 26.8643C150.66 26.8643 149.68 27.2839 148.927 28.1231C148.196 28.9623 147.83 30.0059 147.83 31.254V41.0985H144.15Z" fill="#252525"/>
<path d="M182.793 25.3795H178.759C177.984 22.324 176.069 20.7962 173.013 20.7962C170.711 20.7962 168.968 21.6569 167.784 23.3783C166.601 25.0783 166.009 27.144 166.009 29.5756C166.009 32.0071 166.601 34.0836 167.784 35.805C168.968 37.505 170.711 38.3549 173.013 38.3549C174.735 38.3549 176.09 37.7955 177.08 36.6765C178.091 35.5576 178.694 34.1051 178.888 32.3191H182.825C182.653 35.0949 181.663 37.3436 179.856 39.065C178.07 40.7865 175.789 41.6472 173.013 41.6472C169.678 41.6472 166.999 40.496 164.976 38.1936C162.975 35.8696 161.974 32.9969 161.974 29.5756C161.974 26.1757 162.975 23.3138 164.976 20.9898C166.999 18.6659 169.678 17.5039 173.013 17.5039C175.681 17.5039 177.909 18.214 179.695 19.6342C181.502 21.0329 182.535 22.948 182.793 25.3795Z" fill="#252525"/>
<path d="M186.075 21.5385V18.0526H189.755V21.5385H186.075ZM186.075 41.0985V24.4112H189.755V41.0985H186.075Z" fill="#252525"/>
<path d="M193.764 41.0985V24.4112H197.218V27.6389H197.282C197.497 26.7137 198.089 25.8744 199.057 25.1213C200.047 24.3467 201.08 23.9593 202.156 23.9593C202.371 23.9593 202.834 23.9916 203.544 24.0562V27.6067C202.963 27.4991 202.436 27.4453 201.962 27.4453C200.671 27.4453 199.595 27.9509 198.735 28.9623C197.874 29.9736 197.443 31.3723 197.443 33.1583V41.0985H193.764Z" fill="#252525"/>
<path d="M219.488 29.9952H215.809C215.658 28.9838 215.249 28.2092 214.582 27.6712C213.915 27.1333 213.054 26.8643 212 26.8643C211.462 26.8643 210.946 26.9503 210.451 27.1225C209.977 27.2946 209.493 27.5851 208.998 27.994C208.525 28.4028 208.137 29.0376 207.836 29.8983C207.556 30.7375 207.417 31.7489 207.417 32.9324C207.417 34.5032 207.782 35.8481 208.514 36.967C209.246 38.086 210.354 38.6454 211.839 38.6454C212.914 38.6454 213.797 38.3119 214.485 37.6448C215.195 36.9778 215.636 36.0417 215.809 34.8367H219.488C219.144 37.0101 218.315 38.6777 217.003 39.8397C215.712 40.9802 213.99 41.5504 211.839 41.5504C209.299 41.5504 207.309 40.7542 205.867 39.1619C204.447 37.548 203.737 35.4715 203.737 32.9324C203.737 30.2857 204.447 28.1338 205.867 26.477C207.287 24.7985 209.321 23.9593 211.968 23.9593C214.012 23.9593 215.733 24.4758 217.132 25.5086C218.531 26.5415 219.316 28.037 219.488 29.9952Z" fill="#252525"/>
<path d="M222.576 41.0985V18.0526H226.256V41.0985H222.576Z" fill="#252525"/>
<path d="M233.137 31.2862H241.723C241.637 30.0597 241.217 29.0161 240.464 28.1554C239.711 27.2946 238.732 26.8643 237.527 26.8643C236.279 26.8643 235.246 27.2839 234.429 28.1231C233.611 28.9623 233.18 30.0167 233.137 31.2862ZM245.403 33.707H233.137C233.137 35.1057 233.514 36.2784 234.267 37.2252C235.042 38.172 236.161 38.6454 237.624 38.6454C239.69 38.6454 241.045 37.7202 241.691 35.8696H245.177C244.789 37.6556 243.896 39.0543 242.498 40.0656C241.121 41.0555 239.496 41.5504 237.624 41.5504C235.042 41.5504 233.03 40.7542 231.588 39.1619C230.168 37.548 229.458 35.4177 229.458 32.771C229.458 30.3179 230.2 28.2414 231.685 26.5415C233.17 24.8201 235.117 23.9593 237.527 23.9593C240.088 23.9593 242.121 24.9384 243.628 26.8966C245.134 28.8547 245.726 31.1249 245.403 33.707Z" fill="#252525"/>
<path d="M186.075 18.0526V21.5385H189.755V18.0526H186.075Z" fill="#252525"/>
<path d="M252.454 17.4375L253.964 21.5654L255.46 17.4375H256.996V23.2619H255.994V18.7098H255.968L254.325 23.2619H253.577L251.933 18.7098H251.907V23.2619H250.905V17.4375H252.454ZM249.783 17.4375V18.3564H248.1V23.2619H247.031V18.3564H245.348V17.4375H249.783Z" fill="#252525"/>
</svg>
